# xmcd CD database file
#
# Track frame offsets:
#	150
#	39604
#	54309
#	88320
#	108877
#	134607
#	148262
#	175492
#
# Disc length: 2866 seconds
#
# Revision: 1
# Processed by: cddbd v1.5.2PL0 Copyright (c) Steve Scherf et al.
# Submitted via: CDex 1.70beta2
#
DISCID=760b3008
DTITLE=Zensho W. Kopp - Transformation
DYEAR=2013
DGENRE=New Age
TTITLE0=Tao Sinfonie
TTITLE1=Kosmisches Mantra
TTITLE2=Yin-Yang Sinfonie
TTITLE3=Aufgang des inneren Lichtes
TTITLE4=Samadhi
TTITLE5=Buddha-Paradies
TTITLE6=Prelude für Klavier
TTITLE7=Fantasia Mystica für Klavier
EXTD=YEAR: 2013
EXTT0=
EXTT1=
EXTT2=
EXTT3=
EXTT4=
EXTT5=
EXTT6=
EXTT7=
PLAYORDER=
